HIERARCHY
ROOT hip
{
	OFFSET 0.000000 0.000000 0.000000 
	CHANNELS 6 Xposition Yposition Zposition Xrotation Zrotation Yrotation
	JOINT abdomen
	{
		OFFSET 0.000000 3.402643 0.000000 
		CHANNELS 3 Xrotation Zrotation Yrotation
		JOINT chest
		{
			OFFSET 0.000000 8.438565 -0.680529 
			CHANNELS 3 Xrotation Zrotation Yrotation
			JOINT neck
			{
				OFFSET 0.000000 10.207942 -0.272212 
				CHANNELS 3 Xrotation Zrotation Yrotation
				JOINT head
				{
					OFFSET 0.000000 3.130431 0.000000 
					CHANNELS 3 Xrotation Zrotation Yrotation
					End Site
					{
						OFFSET 0.000000 3.130435 0.000000 
					}
				}
			}
			JOINT lCollar
			{
				OFFSET 3.470700 6.669187 -0.816635 
				CHANNELS 3 Yrotation Zrotation Xrotation
				JOINT lShldr
				{
					OFFSET 3.198488 0.000000 0.000000 
					CHANNELS 3 Zrotation Yrotation Xrotation
					JOINT lForeArm
					{
						OFFSET 10.139888 0.000000 0.000000 
						CHANNELS 3 Yrotation Zrotation Xrotation
						JOINT lHand
						{
							OFFSET 8.370511 0.000000 0.000000 
							CHANNELS 3 Zrotation Yrotation Xrotation
							End Site
							{
								OFFSET 4.083176 0.000000 0.000000 
							}
						}
					}
				}
			}
			JOINT rCollar
			{
				OFFSET -3.470700 6.669187 -0.816635 
				CHANNELS 3 Yrotation Zrotation Xrotation
				JOINT rShldr
				{
					OFFSET -3.198488 0.000000 0.000000 
					CHANNELS 3 Zrotation Yrotation Xrotation
					JOINT rForeArm
					{
						OFFSET -10.139888 0.000000 0.000000 
						CHANNELS 3 Yrotation Zrotation Xrotation
						JOINT rHand
						{
							OFFSET -8.370511 0.000000 0.000000 
							CHANNELS 3 Zrotation Yrotation Xrotation
							End Site
							{
								OFFSET -4.083176 0.000000 0.000000 
							}
						}
					}
				}
			}
		}
	}
	JOINT lThigh
	{
		OFFSET 5.308129 -1.633274 1.361059 
		CHANNELS 3 Xrotation Zrotation Yrotation
		JOINT lShin
		{
			OFFSET -2.041588 -20.007561 0.000000 
			CHANNELS 3 Xrotation Zrotation Yrotation
			JOINT lFoot
			{
				OFFSET 0.000000 -19.190928 -1.224953 
				CHANNELS 3 Xrotation Yrotation Zrotation
				End Site
				{
					OFFSET 0.000000 -2.449906 4.627600 
				}
			}
		}
	}
	JOINT rThigh
	{
		OFFSET -5.308129 -1.633274 1.361059 
		CHANNELS 3 Xrotation Zrotation Yrotation
		JOINT rShin
		{
			OFFSET 2.041588 -20.007561 0.000000 
			CHANNELS 3 Xrotation Zrotation Yrotation
			JOINT rFoot
			{
				OFFSET 0.000000 -19.190928 -1.224953 
				CHANNELS 3 Xrotation Yrotation Zrotation
				End Site
				{
					OFFSET 0.000000 -2.449906 4.627600 
				}
			}
		}
	}
}
MOTION
Frames: 6
Frame Time: 0.033333
1.249370 50.356258 12.415135 178.022446 179.795441 -4.101571 0.000000 0.000000 0.000000 -0.867042 -0.703025 -0.966964 5.553269 -1.291655 -13.460591 -3.429014 -0.486606 -12.305149 -3.275746 1.622498 -0.195191 -66.588440 10.253412 17.955999 -43.005428 -10.438458 16.036667 5.067224 6.835055 -3.398577 6.021238 4.543880 -0.438764 65.220131 -14.632944 17.173233 40.577362 6.591064 8.137878 -9.480158 -11.567201 -2.942101 4.017630 6.585137 7.957172 7.010790 -1.695663 13.031547 -10.492426 0.754111 -7.941481 -0.322503 -5.929870 -4.895926 11.000324 2.535320 -11.397642 -11.010430 -0.607395 6.138976 
1.190431 50.346279 12.347740 178.035233 179.640030 -4.951258 0.000000 0.000000 0.000000 -0.933471 -0.722525 -1.093909 5.671786 -1.319117 -13.646312 -3.662509 -0.352869 -12.422117 -3.459952 1.616311 -0.243873 -66.315239 12.882043 17.103748 -42.131638 -10.396498 15.332351 4.875663 6.194891 -3.420289 5.829130 4.373410 -0.497024 65.340775 -14.735000 17.214697 40.556938 6.587295 7.970749 -9.621058 -11.627541 -2.932214 4.135317 6.546227 8.001266 7.266913 -1.617521 13.841375 -10.791193 0.781242 -8.064301 -0.283605 -5.946534 -4.856985 10.853084 2.583967 -10.515048 -10.968761 -0.630964 6.083393 
1.151690 50.355179 12.290146 177.783691 179.436584 -5.888866 0.000000 0.000000 0.000000 -1.060524 -0.663921 -1.181788 5.449336 -1.308535 -13.841793 -4.025093 -0.476689 -12.510219 -3.438416 1.379707 -0.370552 -65.778976 15.073688 16.435148 -41.566769 -10.337486 14.886035 4.892354 6.391607 -3.410910 5.623744 4.412620 -0.614240 65.203606 -14.706791 17.105007 40.699295 6.554959 7.638068 -10.209251 -11.857100 -2.872737 4.197967 6.600020 8.055224 7.164810 -1.600991 14.746182 -10.859988 0.823029 -8.131763 -0.322488 -5.793936 -4.739768 10.264642 2.660789 -9.716589 -10.612961 -0.599576 5.931045 
1.146911 50.357563 12.227817 177.586441 179.263199 -6.914618 0.000000 0.000000 0.000000 -1.196236 -0.712739 -1.181792 5.092239 -1.241900 -13.890163 -3.634876 -0.610322 -12.442146 -3.375752 1.532713 -0.487779 -65.710777 16.989395 15.889033 -40.825047 -10.256844 15.160221 4.743353 6.577631 -3.409664 5.552763 4.315183 -0.721668 65.277306 -14.663583 17.035748 40.645813 6.509558 7.555374 -10.074713 -11.708791 -2.888905 4.373858 6.688106 8.260350 7.092620 -1.666893 15.693726 -11.029648 0.845271 -8.243641 -0.410517 -5.579716 -4.442801 9.817967 2.537126 -9.090265 -10.337971 -0.577732 5.883451 
1.113758 50.356670 12.219678 177.486237 179.302902 -7.510276 0.000000 0.000000 0.000000 -1.189458 -0.868875 -1.416297 4.993084 -1.534805 -14.038527 -3.454903 -0.009531 -12.587893 -3.485878 1.192436 -0.497422 -65.032768 18.473898 15.857203 -40.231499 -10.402009 14.905065 3.693970 6.811344 -3.429589 5.243853 3.989657 -0.692208 65.392944 -14.543289 17.100414 40.437332 6.514392 7.808716 -10.362247 -11.358272 -2.900998 4.430359 6.568669 8.257170 6.942973 -1.703814 16.305597 -11.009564 0.827014 -8.219684 -0.654358 -5.613058 -4.331757 9.907649 2.418945 -8.732332 -10.289994 -0.550028 5.939361 
1.096503 50.353001 12.194900 177.508713 179.439148 -8.037487 0.000000 0.000000 0.000000 -1.081119 -1.103047 -1.670364 4.630744 -1.789758 -14.147918 -2.631835 0.066772 -12.373051 -3.325305 0.649942 -0.429046 -63.860889 19.121420 16.644667 -39.881817 -10.953394 14.491568 3.190229 7.640303 -3.434991 4.943011 3.894194 -0.595452 65.141571 -14.526071 17.135439 40.469692 6.518203 8.254447 -11.277829 -11.267340 -2.838813 4.734319 6.326470 8.197929 6.583812 -1.724105 16.978386 -10.887723 0.814495 -8.223382 -0.889001 -5.789447 -4.336894 10.252900 2.391440 -8.313664 -10.429664 -0.575745 5.961504 
